<?xml version="1.0" encoding="UTF-8" standalone="no"?>
<!-- Created with Inkscape (http://www.inkscape.org/) -->

<svg
   version="1.1"
   id="svg2"
   width="1750"
   height="1300"
   viewBox="0 0 1750 1300"
   sodipodi:docname="383038126_1394355801291048_5285119297349120602_n.png"
   inkscape:export-filename="persas-icon.svg"
   inkscape:export-xdpi="5.6595187"
   inkscape:export-ydpi="5.6595187"
   xmlns:inkscape="http://www.inkscape.org/namespaces/inkscape"
   xmlns:sodipodi="http://sodipodi.sourceforge.net/DTD/sodipodi-0.dtd"
   xmlns="http://www.w3.org/2000/svg"
   xmlns:svg="http://www.w3.org/2000/svg">
  <defs
     id="defs6">
    <inkscape:path-effect
       effect="spiro"
       id="path-effect1583"
       is_visible="true"
       lpeversion="1" />
  </defs>
  <sodipodi:namedview
     id="namedview4"
     pagecolor="#ffffff"
     bordercolor="#000000"
     borderopacity="0.25"
     inkscape:showpageshadow="2"
     inkscape:pageopacity="0.0"
     inkscape:pagecheckerboard="0"
     inkscape:deskcolor="#d1d1d1"
     showgrid="false" />
  <g
     inkscape:groupmode="layer"
     inkscape:label="Image"
     id="g8"
     transform="translate(-100,-200)">
    <path
       style="display:inline;fill:#00ffff;stroke-width:1.00157"
       d="M 619.34087,305.64874 572.68922,825.25159"
       id="path1581"
       inkscape:path-effect="#path-effect1583"
       inkscape:original-d="m 619.34087,305.64874 c -14.4771,173.20195 -31.1001,346.4029 -46.65165,519.60285" />
    <path
       style="fill:#97c458;fill-opacity:1;stroke-width:1.00157"
       d="M 358.7351,878.33795 C 328.72058,796.67269 293.84722,716.81142 324.95287,600.03673 351.00891,476.48949 390.07814,424.75031 434.34294,391.71299 c 76.33105,-54.76548 156.40407,-90.50555 234.86693,-94.10764 45.68923,-4.03564 77.67898,-4.72531 122.2595,1.60868 68.25666,-3.87473 75.16293,4.61731 89.28538,4.01033 l 4.01791,16.09813 c -13.45502,-2.46239 -40.70741,-2.69997 -49.29725,-1.60867 -30.19696,0.80434 -29.56464,0.78173 -40.78869,4.02169 -15.59881,6.22584 -17.43373,13.76252 -23.32582,20.91281 -2.71212,19.65671 3.03094,34.55737 8.04338,49.86901 8.48573,10.98468 19.67318,16.02559 30.56488,21.71714 27.88374,7.57058 55.76749,12.59129 83.65123,13.67376 11.88494,1.36658 20.16559,1.18846 28.65901,1.10153 28.62076,0.25946 54.17974,-2.20266 78.3181,-5.92756 23.1229,-4.45651 42.5666,-12.39565 59.2013,-22.84129 9.9859,-8.98825 20.152,-17.83242 22.8412,-32.65808 0.5628,-12.01289 -4.839,-25.31459 -12.9922,-34.90637 -13.7353,-9.44298 -29.4117,-16.94481 -48.1375,-21.39735 -25.28762,-6.75845 -51.53921,-11.10699 -78.82524,-12.86942 -11.05855,-0.98012 -7.31915,-5.15375 -29.44074,4.77111 -2.56139,1.39031 -7.42145,-7.74017 -4.3738,-11.33826 23.90979,-9.75766 35.32941,-8.46165 53.11867,-11.1283 55.13341,-8.52842 109.81221,-9.7828 164.45471,-10.45641 36.0035,0.89164 71.1908,6.99205 103.2254,16.81359 32.0721,7.57243 75.1688,22.27951 106.5021,39.80993 18.5383,11.53115 38.6249,24.86876 60.1607,39.89714 12.4628,10.25187 35.1006,30.33366 37.3696,42.60015 -1.2237,15.56645 4.2737,27.16549 -2.5706,34.36343 -24.6115,38.0736 -61.5166,60.29321 -91.907,91.14322 -28.3199,28.22797 -60.4021,52.15605 -95.7163,72.39049 -44.3776,29.80893 -87.9844,70.4929 -138.9192,88.12407 -45.6997,21.30945 -88.7534,38.05892 -144.3512,58.58561 -50.11106,20.74554 -92.49959,39.93214 -144.18673,58.27502 -58.78266,26.67944 -128.13187,40.4888 -191.88377,57.22975 -56.03129,10.46648 -113.90734,16.6285 -172.93284,20.10847 -43.34903,-1.448 -86.25719,-2.97721 -92.49896,-11.26075 z"
       id="path1654"
       sodipodi:nodetypes="ccccccccccccccccccccccccccccccccccccc" />
    <path
       style="fill:#abc782;fill-opacity:1;stroke-width:1.00157"
       d="m 884.21311,319.82176 c -26.79352,-5.22831 -54.52971,-5.68099 -84.33818,-1.86443 -20.66367,6.561 -26.9196,19.22829 -32.5185,28.65877 -1.77801,14.34732 4.15564,33.07678 9.9289,47.4241 4.92505,10.52728 17.99657,16.50373 29.71575,21.74669 22.38833,9.45106 47.13581,11.05256 73.22138,13.84859 31.73514,5.29426 60.54885,0.80189 92.28399,-1.05699 28.85585,-2.1132 55.27965,-9.00408 75.77455,-20.23828 10.1279,-5.36733 24.9201,-9.91967 36.5091,-35.01297 0.2648,-8.74141 -2.3892,-17.96973 -6.4606,-26.71114 -2.4373,-9.15535 -7.7541,-13.7036 -13.9672,-16.81772 -10.1004,-7.9142 -21.255,-13.36856 -33.6355,-15.96259 -30.6995,-7.96897 -62.10355,-17.46673 -98.05585,-18.68215 -13.7214,1.25755 -18.61852,6.60416 -20.23827,10.13077 l 4.84578,13.39717 c 0.92076,6.74609 0.9635,8.93144 3.7056,12.54203 -1.07962,2.28037 0.81573,4.27569 1.99532,6.55606 10.19747,3.15509 56.51545,2.05195 81.52322,7.4112 12.1747,3.27901 21.4529,9.93733 29.0747,18.528 4.0805,7.63376 6.4594,15.55112 5.986,23.94387 -0.8193,6.38991 -4.9022,10.60411 -10.2617,13.96726 -3.3259,0.67252 -21.5311,6.62495 -34.49059,10.26166 -14.72762,3.70544 -28.38589,5.84342 -47.60271,8.26634 -15.61242,0.98271 -33.13324,1.01123 -53.30362,-0.28504 -19.36891,-0.80648 -38.93075,-1.95061 -61.28492,-7.9813 -6.7462,-3.23086 -13.12946,-5.37288 -22.80369,-17.38781 -1.36892,-11.4949 -0.60394,-22.51561 4.84578,-32.49526 6.93613,-8.07631 11.9296,-16.15261 26.79434,-24.22892 9.76142,-2.21052 20.38505,-3.55883 33.92049,-1.99532 4.76883,-0.45702 12.05427,1.60258 11.97194,-3.7056 0.54345,-4.08566 0.10109,-8.17133 -3.13551,-12.25699 z"
       id="path6981"
       sodipodi:nodetypes="ccccccccccccccccccccccccccccccc" />
    <path
       style="fill:#d8f7b7;fill-opacity:1;stroke-width:1.00157"
       d="m 707.07276,532.66149 c 32.76513,15.98581 69.01405,19.77833 105.19259,23.81719 37.71055,5.64411 75.42109,7.08597 113.13164,3.96953 l 97.25351,-19.84765 79.6206,-16.63991 c 15.1487,-5.0991 21.7652,-6.38647 48.5609,-18.34356 23.1283,6.42809 6.4354,21.15904 -1.1565,32.9987 -13.2032,13.23177 -29.8998,26.46354 -53.5886,39.69531 -26.5043,20.19077 -60.4826,33.97533 -99.23837,43.66485 -35.34394,10.50982 -72.0812,14.05305 -109.16209,15.87812 -55.79703,-5.06451 -112.2792,-8.41619 -164.73555,-21.83242 -40.14103,-20.18763 -72.40219,-41.80796 -93.28399,-65.49727 -9.33355,-15.62914 -13.60453,-20.45714 -22.09834,-38.56097 -8.43065,-19.39877 5.89375,-27.97771 19.42244,-27.87536 29.45312,16.66865 9.25618,0.94257 21.81222,13.45045 23.51007,21.35134 33.4185,24.30349 58.26954,35.12299 z"
       id="path12281"
       sodipodi:nodetypes="cccccccccccccccc" />
    <path
       style="display:inline;fill:#d2d350;fill-opacity:1;stroke-width:1.37934"
       d="m 485.24501,1188.2249 c -2.3865,-1.1895 -5.06725,-3.7609 -5.95723,-5.7142 -3.79797,-8.3356 -32.12594,-56.3721 -69.56198,-117.9579 -63.11353,-103.82783 -80.51648,-133.95184 -96.34169,-166.76476 -12.05259,-24.99053 -18.32471,-44.85873 -16.48068,-52.20591 0.7228,-2.87988 1.94062,-2.00449 13.62386,9.79326 14.0447,14.18234 19.3555,17.29636 39.30858,23.04876 17.68634,5.09889 42.43579,8.88883 69.76399,10.68311 26.9953,1.7724 46.45392,0.53365 100.28199,-6.38403 87.28618,-11.21755 157.45636,-27.3434 230.39245,-52.94664 136.37339,-47.87206 241.19139,-88.57042 327.8813,-127.30858 68.5162,-30.61713 115.2633,-58.2142 177.1353,-104.57149 38.0938,-28.54165 107.8033,-86.92469 126.0111,-105.53666 6.4382,-6.58121 19.8646,-18.27476 29.8363,-25.98565 9.9717,-7.71089 21.2508,-17.43409 25.0647,-21.60709 13.8996,-15.20829 19.7009,-33.93235 14.8889,-48.05471 -2.3777,-6.97821 -1.7461,-7.45392 5.3966,-4.0645 16.2753,7.72315 36.9766,43.0497 58.1595,99.24851 22.8434,60.60403 58.7672,185.47818 60.3472,209.77193 1.3721,21.09857 -5.8526,42.84408 -20.8188,62.66126 -22.3018,29.53068 -98.2104,93.20987 -169.4315,142.13502 -36.4253,25.02227 -105.9466,69.51612 -118.4367,75.79989 -6.9277,3.48534 -116.2305,51.19358 -146.6686,64.01758 -138.4818,58.3443 -241.74743,90.101 -345.6698,106.3018 -11.74038,1.8302 -32.19136,5.5325 -45.44662,8.2271 -61.63419,12.5297 -129.00999,21.5575 -206.37605,27.6528 -31.74295,2.5009 -31.40101,2.5031 -36.90212,-0.2389 z"
       id="path14243" />
    <path
       style="display:inline;fill:#8e8f31;fill-opacity:1;stroke-width:1.37934"
       d="m 1420.1062,459.25688 c -0.029,-0.49077 8.1669,-11.28053 10.0687,-13.94595 3.6333,-5.09229 3.9943,-7.48669 3.443,-21.54158 -0.449,-11.44621 0.4953,-14.7271 -2.7378,-20.94699 -1.437,-2.76446 0.084,0.5184 -2.7543,-4.52149 0,0 2.3184,-1.71427 7.0666,-4.82199 6.5089,-4.26015 13.5491,-3.07994 14.4503,-2.99253 6.7127,0.65113 4.0536,18.64868 2.3819,25.70523 -2.9763,12.56381 -8.4714,21.72869 -18.4198,31.4865 -3.8861,3.81161 -13.4696,12.06956 -13.4986,11.5788 z"
       id="path14866"
       sodipodi:nodetypes="ssssssssss" />
    <path
       style="fill:#8e8f31;fill-opacity:1;stroke-width:1.00157"
       d="m 297.46882,843.96921 c 6.34531,-16.11791 23.5756,-21.59406 41.61108,-22.29487 9.51933,30.20616 12.67811,41.08359 25.31416,60.20883 -8.73426,-1.93381 -40.91084,-1.93672 -66.92524,-37.91396 z"
       id="path14922"
       sodipodi:nodetypes="cccc" />
    <path
       style="fill:#97c458;fill-opacity:1;stroke-width:1.00157"
       d="m 501.51038,1190.9654 c 61.87869,132.3007 178.28098,223.8761 265.8492,227.8708 47.99884,2.1896 83.40139,-19.507 115.88299,-29.2142 53.33238,-11.8337 99.88812,-11.3462 143.14953,-4.869 36.941,10.2179 72.2866,21.0741 121.7258,26.2927 42.2114,-9.0626 79.1898,-28.5913 111.014,-58.4284 236.8699,-173.3195 244.105,-374.24649 261.9539,-549.22687 C 1169.0285,1074.8874 832.89048,1165.0108 501.51038,1190.9654 Z"
       id="path14924"
       sodipodi:nodetypes="cscccccc" />
    <path
       style="fill:#000000;fill-opacity:1;stroke-width:1.00157"
       id="path16749"
       d="m 418.60465,891.30686 c 1.76589,6.43252 3.82152,12.77467 6.13385,19.03104 0.54807,1.48291 1.08037,2.97298 1.69341,4.43024 0.65029,1.54578 1.39642,3.04948 2.09463,4.57422 0.74672,1.61552 1.51395,3.22171 2.24017,4.84654 1.55913,3.48838 3.01466,7.02237 4.56534,10.51452 3.57665,8.05461 7.21103,16.0807 10.9572,24.05763 2.68241,5.0944 5.28823,10.22395 7.85794,15.37561 1.55984,3.12711 2.74832,5.24812 3.99042,8.42765 0.24706,0.63243 0.39217,1.30009 0.58826,1.95014 0.29463,2.21675 -0.35711,0.88674 3.95494,1.6732 1.34937,-2.4858 -2.16608,-4.3941 -3.51545,-1.9083 v 0 c 4.27228,1.24265 3.89797,2.13576 3.38269,-0.94429 -0.24885,-0.79191 -0.44375,-1.60283 -0.74655,-2.37571 -1.27131,-3.24498 -2.48719,-5.42562 -4.07087,-8.60004 -2.55731,-5.12604 -5.14673,-10.23207 -7.82082,-15.29872 -3.73076,-7.94267 -7.34929,-15.9348 -10.91076,-23.95504 -1.56264,-3.51898 -3.03036,-7.07971 -4.60145,-10.59493 -0.72473,-1.62154 -1.49042,-3.22446 -2.23563,-4.83669 -0.66462,-1.44478 -1.37657,-2.86871 -1.99385,-4.33434 -0.60247,-1.43047 -1.12516,-2.89339 -1.66344,-4.34923 -2.25919,-6.11018 -4.26863,-12.30303 -6.00247,-18.58293 -0.63599,-2.756 -4.53356,-1.85656 -3.89756,0.89943 z" />
    <path
       style="fill:#000000;fill-opacity:1;stroke-width:1.00157"
       id="path16757"
       d="m 508.8459,1114.6094 c 1.93401,7.0587 5.10299,13.7013 8.66329,20.07 2.47138,4.4209 5.40494,8.5729 8.03833,12.8969 3.23921,3.9608 4.72781,8.8799 7.18037,13.2808 1.42043,2.5488 2.30777,3.6837 3.97617,6.0615 2.68224,3.6663 4.45399,7.8788 6.08042,12.0906 0.3591,0.9299 0.61086,1.906 1.05665,2.7975 0.42035,0.8408 1.0182,1.5803 1.52731,2.3705 0.78828,1.2189 1.41943,1.808 3.05749,1.9914 2.81142,0.3097 3.24938,-3.6662 0.43795,-3.9759 v 0 c -0.96308,-0.1048 2.06601,2.0594 -0.17394,-0.2443 -1.7443,-2.4508 -0.80499,-0.8518 -2.18428,-4.4065 -1.7477,-4.5042 -3.66334,-8.9992 -6.52961,-12.9241 -1.48049,-2.1004 -2.42194,-3.3192 -3.67734,-5.5633 -2.51038,-4.4875 -4.03947,-9.5118 -7.33543,-13.5597 -2.58878,-4.2459 -5.4772,-8.3257 -7.90775,-12.6656 -3.44243,-6.1468 -6.52499,-12.5473 -8.37833,-19.3692 -0.81274,-2.7091 -4.64405,-1.5597 -3.8313,1.1494 z" />
    <path
       style="fill:#000000;fill-opacity:1;stroke-width:1.00157"
       id="path16761"
       d="m 662.7563,1089.9206 c 2.62794,5.9622 5.25205,11.9425 7.55674,18.0403 0.21297,0.5635 0.3983,1.1376 0.56821,1.7155 0.12714,0.4325 0.12953,0.9059 0.32226,1.3133 0.361,0.7633 0.88073,1.4408 1.3211,2.1612 0.39869,0.8308 0.83781,1.6435 1.19607,2.4926 0.4532,1.0741 0.78571,2.1964 1.23608,3.2716 3.45214,8.242 -0.0269,-0.6852 3.09823,6.8985 0.99398,2.4121 1.16657,3.1237 1.93995,5.5583 1.28125,5.982 4.03212,11.019 6.99773,16.2832 0.33818,1.0964 0.82071,2.1653 1.4704,3.1161 0.32722,0.4789 0.77905,0.8722 1.06088,1.3791 0.18173,0.3269 0.17796,0.7281 0.30603,1.0794 0.19738,0.5415 0.44574,1.0631 0.66861,1.5946 0.80619,2.7542 2.20054,5.2879 4.07617,7.4562 0.15182,0.2536 0.39589,0.4713 0.45545,0.7608 0.0329,0.1602 -0.21463,0.2811 -0.2075,0.4444 0.0609,1.3964 0.59799,2.3378 1.121,3.6333 1.11137,2.6009 4.78965,1.0292 3.67828,-1.5717 v 0 c -0.19242,-0.4128 -0.42911,-0.8077 -0.57727,-1.2383 -0.54323,-1.5791 -0.10115,-3.4433 -1.47962,-4.6852 -1.66,-1.7961 -2.67933,-4.0331 -3.37898,-6.3494 -0.17136,-0.4067 -1.50392,-3.5703 -1.51859,-3.5975 -0.18838,-0.3488 -0.52247,-0.5983 -0.75027,-0.9228 -0.65531,-0.9332 -1.05659,-1.9986 -1.43961,-3.0624 -1.41246,-2.5069 -2.91737,-4.997 -4.1058,-7.6215 -0.81433,-1.7984 -1.16666,-3.1821 -1.73855,-5.1006 -0.27918,-0.9365 -0.55156,-1.8751 -0.82734,-2.8127 -0.84961,-2.6561 -1.00734,-3.3287 -2.09222,-5.96 -3.8563,-9.3531 1.01828,2.9167 -3.0185,-6.7044 -0.49798,-1.1868 -0.86823,-2.4253 -1.38102,-3.6058 -0.44259,-1.0189 -0.98794,-1.9901 -1.4819,-2.9851 -0.24941,-0.294 -0.58586,-0.5323 -0.74824,-0.882 -0.23292,-0.5016 -0.25003,-1.0781 -0.4081,-1.6081 -0.19455,-0.6523 -0.40857,-1.2994 -0.64904,-1.9362 -2.29651,-6.0818 -4.91348,-12.046 -7.53726,-17.9906 -1.01535,-2.6399 -4.74873,-1.204 -3.73338,1.4359 z" />
    <path
       style="fill:#000000;fill-opacity:1;stroke-width:1.00157"
       id="path16769"
       d="m 618.01956,964.81612 c -3.50182,-4.80005 -6.44885,-10.10301 -8.53663,-15.68008 -0.38166,-1.01952 -0.57178,-2.10095 -0.87839,-3.14549 -1.10711,-3.77168 -0.97401,-3.17343 -2.4849,-7.2129 -0.48049,-1.40227 -0.96099,-2.80454 -1.44148,-4.20681 -0.39537,-1.38706 -0.71995,-2.79629 -1.1861,-4.1612 -2.84292,-8.32418 -0.29351,0.71792 -2.83137,-7.58685 -2.2805,-7.4626 0.30521,-0.42585 -2.52544,-7.6895 -1.47741,-3.55421 -2.1913,-7.35677 -3.33449,-11.0102 -0.4139,-1.32274 -0.96795,-2.59801 -1.40909,-3.91192 -1.31291,-3.91044 -1.43871,-4.64747 -2.49582,-8.63752 -0.0545,-2.64876 -1.79961,-4.92808 -2.29503,-7.44897 -0.0109,-0.0552 0.1675,0.007 0.16144,-0.0492 -0.17067,-1.57287 -0.46849,-1.75249 -1.25246,-3.21217 -0.18145,-0.41747 -0.40572,-0.81883 -0.54435,-1.2524 -0.0865,-0.27041 -0.0836,-0.56159 -0.12543,-0.84239 -0.15369,-0.55096 -0.26989,-1.1138 -0.46108,-1.6529 -0.61522,-1.73465 -1.32741,-3.45169 -2.21863,-5.05764 -1.41993,-2.44618 -4.87935,-0.43809 -3.45942,2.00809 v 0 c 1.68548,2.69106 2.04406,5.92018 3.32998,8.77133 1.14689,1.84064 0.36831,0.004 0.79763,2.61757 0.36781,2.23946 2.38558,4.84223 2.20121,7.14482 1.09882,4.13299 1.23729,4.92532 2.60145,8.97469 0.40319,1.19683 0.92278,2.35351 1.29931,3.55899 1.18873,3.80586 1.94018,7.763 3.48216,11.46344 2.56373,6.45685 0.1744,0.0733 2.46531,7.52623 3.31334,10.77912 -0.48893,-2.17607 2.76802,7.38542 0.48741,1.43088 0.83228,2.90641 1.24842,4.35961 0.49331,1.438 0.98663,2.876 1.47994,4.314 1.56773,4.1692 1.21823,3.00633 2.38413,6.90729 0.36498,1.22119 0.62108,2.47798 1.06923,3.67116 2.1921,5.83638 5.33249,11.42884 8.99188,16.45553 1.69706,2.26274 4.89706,-0.13726 3.2,-2.4 z" />
    <path
       style="fill:#000000;fill-opacity:1;stroke-width:1.00157"
       id="path16771"
       d="m 811.36221,1048.7695 c 2.68015,6.997 6.22556,13.646 8.37807,20.8391 1.61123,5.058 3.3245,10.1102 5.33955,15.0252 0.59216,1.4443 2.23218,4.9925 2.9114,6.4765 2.91372,6.972 4.65729,14.3477 7.06085,21.4953 3.42298,10.1792 -0.15409,-1.1681 2.24921,6.559 0.89256,2.1906 1.62146,4.441 2.3333,6.6949 0.21529,0.6817 0.37401,1.3834 0.64,2.0469 0.25721,0.6416 1.76705,3.6261 2.12024,4.3311 2.24703,4.4352 0.13321,0.036 1.1133,2.4884 0.10795,0.2701 0.28938,0.5094 0.37822,0.7864 0.0123,0.038 -0.0727,0.035 -0.10905,0.053 0.11747,0.4609 0.15594,0.9496 0.35241,1.3828 0.32436,0.715 0.79696,1.3531 1.19544,2.0297 0.26243,0.4118 0.52486,0.8236 0.78729,1.2353 1.5202,2.3852 4.89333,0.2353 3.37313,-2.1498 v 0 c -0.2665,-0.4182 -0.53301,-0.8363 -0.79951,-1.2544 -0.23085,-0.2986 -0.51452,-0.563 -0.69254,-0.8957 -0.16599,-0.3103 -0.5099,-2.0993 -0.54206,-2.2145 -0.0283,-0.1014 -0.12134,-0.1745 -0.1604,-0.2723 -1.03295,-2.587 0.23678,0.092 -1.31995,-2.9803 -0.62405,-1.2455 -1.36069,-2.44 -1.87881,-3.7332 -0.26877,-0.6708 -0.42922,-1.3801 -0.64705,-2.0691 -0.7098,-2.2453 -1.43095,-4.4896 -2.32542,-6.67 -2.70438,-8.6464 1.29103,3.9663 -2.25348,-6.5726 -2.45617,-7.3029 -4.23372,-14.8418 -7.23806,-21.9554 -0.5743,-1.2545 -2.30632,-5.007 -2.81246,-6.2408 -1.98014,-4.8269 -3.66478,-9.7885 -5.24745,-14.7561 -0.30892,-1.0084 -0.57439,-2.0311 -0.92675,-3.0251 -0.29337,-0.8277 -0.68673,-1.6166 -1.00825,-2.4337 -1.46741,-3.7292 -0.69362,-2.1727 -2.46679,-6.161 -3.76124,-8.46 -0.32239,-0.1247 -4.09048,-9.5449 -1.05045,-2.6261 -4.76435,-1.1405 -3.7139,1.4856 z" />
    <path
       style="fill:#000000;fill-opacity:1;stroke-width:1.00157"
       id="path16775"
       d="m 783.42497,937.94989 c -2.47862,-3.82482 -4.35441,-7.99393 -5.76988,-12.31911 -2.42318,-7.40443 1.42909,3.48341 -1.58957,-4.89855 -0.28955,-0.96879 -0.56548,-1.94176 -0.86865,-2.90637 -0.37152,-1.18207 -0.79654,-2.34714 -1.15527,-3.53315 -1.20027,-3.96834 -2.12225,-8.02208 -3.4992,-11.93828 -0.44592,-1.26825 -0.99171,-2.49914 -1.48757,-3.74871 -3.5871,-7.1007 -5.96246,-14.69248 -8.31672,-22.26617 -1.58436,-5.33424 -4.28984,-10.22286 -6.85144,-15.12895 -0.68445,-1.31089 -1.46712,-2.57275 -2.08069,-3.91828 -0.53437,-1.17188 -1.34857,-3.97934 -1.7469,-5.2898 -0.64442,-3.08678 -2.08556,-5.89281 -3.25876,-8.79003 -0.46631,-1.15153 -0.88609,-2.32145 -1.34575,-3.47565 -0.63999,-1.86025 -1.41473,-3.69779 -1.91561,-5.60389 -0.13766,-0.52389 -0.23255,-1.05998 -0.29459,-1.59808 -0.0294,-0.25513 0.0927,-0.52339 0.0215,-0.77015 -0.15168,-0.52612 -0.45018,-0.99829 -0.67527,-1.49743 -1.86096,-2.12999 -4.87322,0.50179 -3.01227,2.63179 v 0 c -0.10404,-0.3606 -0.10574,-1.39524 -0.31212,-1.08178 -0.27112,0.4118 -0.0132,0.9894 0.0511,1.47823 0.36203,2.75162 1.537,5.3169 2.42132,7.92191 0.47374,1.18834 0.90806,2.39224 1.38818,3.57801 1.11789,2.76084 2.50664,5.4273 3.10624,8.37408 0.56772,1.85524 1.25501,4.27204 2.04015,5.9989 0.60528,1.33129 1.38077,2.57847 2.05789,3.8747 2.45508,4.69991 5.06976,9.37264 6.5874,14.48425 2.38655,7.67082 4.79071,15.36522 8.42047,22.55912 0.46171,1.15331 0.97253,2.28815 1.38512,3.45992 1.38445,3.93183 2.31091,8.00484 3.51576,11.99006 0.34904,1.1545 0.76347,2.28833 1.12567,3.43877 0.32604,1.03556 0.62593,2.07917 0.93889,3.11875 2.44025,6.70002 -0.71621,-2.13538 1.59514,4.91379 1.56039,4.75891 3.66135,9.335 6.4525,13.50284 1.81071,2.17285 4.8836,-0.38788 3.07288,-2.56074 z" />
    <path
       style="fill:#000000;fill-opacity:1;stroke-width:1.00157"
       id="path16783"
       d="m 990.41153,998.78419 c 2.54318,8.53741 4.82793,17.14811 7.27499,25.71271 2.16313,7.5709 2.65758,11.2391 7.59638,16.9601 0.6563,11.9129 7.665,21.7128 11.9977,32.444 0.7806,3.4197 2.8047,6.1842 4.3235,9.2542 1.26,2.5323 4.8411,0.7504 3.5811,-1.7819 v 0 c -1.4894,-2.9781 -3.4614,-5.6302 -4.1973,-8.9742 -0.7476,-1.8395 -1.4217,-3.7107 -2.2427,-5.5187 -2.6751,-5.8911 -6.3047,-11.2406 -8.0955,-17.5301 -0.5443,-1.9119 -0.6198,-3.9299 -1.0525,-5.8702 -0.3496,-1.5679 -0.861,-3.0952 -1.2915,-4.6428 -0.1861,-0.2138 -2.4917,-2.8162 -2.7052,-3.2252 -1.7893,-3.4265 -3.1365,-8.954 -4.0621,-12.1937 -1.1585,-4.0549 -2.27416,-8.1219 -3.41123,-12.1828 -1.30697,-4.5721 -2.61393,-9.1442 -3.9209,-13.71632 -0.89443,-2.68328 -4.68916,-1.41837 -3.79474,1.26491 z" />
    <path
       style="fill:#000000;fill-opacity:1;stroke-width:1.00157"
       id="path16791"
       d="m 962.63568,903.42771 c -5.32594,-9.95107 -10.19421,-20.15832 -14.51511,-30.58683 -1.58301,-3.8206 -3.03245,-7.6952 -4.53252,-11.54912 -8.51405,-21.87395 0.13444,0.0569 -8.56649,-21.91123 -2.63119,-6.37068 -2.95292,-7.32031 -5.42992,-12.82933 -0.50159,-1.11558 -1.10226,-2.18819 -1.54425,-3.3287 -1.50835,-3.89213 -2.17899,-8.09248 -2.91821,-12.17423 -1.10098,-5.39166 -1.92123,-10.91223 -3.75341,-16.12684 -0.43557,-1.2397 -1.09818,-2.3879 -1.6138,-3.59649 -0.75136,-1.76115 -1.42806,-3.55333 -2.16378,-5.32107 -0.64623,-2.46833 -1.48614,-4.91963 -1.98698,-7.4255 -0.11157,-0.55827 -0.12223,-1.13226 -0.20271,-1.69586 -0.2994,-2.09668 -0.35636,-2.11229 -0.86553,-4.33489 2.20259,1.63403 -2.33937,-3.66841 -1.27069,-2.99023 -0.66776,-2.74848 -4.55469,-1.80413 -3.88693,0.94434 v 0 c 0.32102,1.03613 0.82059,1.94934 1.26014,2.94571 0.50752,2.17945 0.48847,1.88467 0.79592,3.94712 0.10879,0.72979 0.15544,1.46954 0.29927,2.19324 0.53415,2.68765 1.43904,5.31707 2.16471,7.95335 0.75293,1.80824 1.43946,3.64412 2.21653,5.44211 0.44224,1.02324 1.03588,1.98265 1.40683,3.03384 1.79609,5.08969 2.58788,10.48321 3.66502,15.74712 0.81035,4.43531 1.58915,8.91407 3.22526,13.14203 0.43182,1.11589 1.02048,2.1647 1.51135,3.2559 2.44979,5.44584 2.76255,6.37356 5.37226,12.69136 8.87463,22.4058 -0.15359,-0.48268 8.56207,21.90001 1.51913,3.90129 2.98793,7.82317 4.59123,11.69063 4.3882,10.58518 9.33165,20.94632 14.74977,31.04155 1.45521,2.42535 4.88518,0.36737 3.42997,-2.05799 z" />
    <path
       style="fill:#000000;fill-opacity:1;stroke-width:1.00157"
       id="path16793"
       d="m 1171.8209,899.99456 c 2.3738,5.23118 4.3041,10.76044 7.2459,15.72059 0.9358,1.57776 3.1584,4.59537 4.2367,6.09254 2.8853,4.9801 5.3515,10.18972 8.0992,15.24425 2.135,3.9277 4.1106,7.17488 6.3877,11.01053 5.5958,8.51569 11.9485,16.49767 17.6628,24.93324 1.4537,1.73418 2.1095,3.80127 3.002,5.82201 0.2155,0.48813 0.3706,1.0111 0.6649,1.45621 0.5026,0.76018 1.1365,1.24719 1.8033,1.81424 0.2363,1.25352 1.0777,2.24642 1.7092,3.3098 0.5099,0.85855 0.7463,1.30334 1.4609,2.08071 0.4547,0.75266 1.469,0.54309 2.0806,1.01317 0.095,0.0727 -0.3104,-0.16557 -0.3537,-0.0544 -0.059,0.15143 0.1009,0.31652 0.2023,0.44354 0.8002,1.00295 0.8971,0.97375 1.8643,1.62725 0.2052,0.73016 1.1325,0.88099 1.3322,1.58545 1.5793,2.34648 4.8977,0.11307 3.3185,-2.23341 v 0 c -0.7602,-1.00939 -1.6059,-1.77479 -2.476,-2.70921 -0.1454,-0.0859 -0.274,-0.21095 -0.4363,-0.25758 -0.042,-0.0122 -0.044,0.14821 -0.069,0.11231 -0.2255,-0.31778 -0.3269,-0.71709 -0.5738,-1.01859 -0.5095,-0.62226 -1.2324,-1.37789 -2.0952,-1.54329 -0.074,-0.0141 0.032,0.14655 0.048,0.21982 -0.5311,-0.41033 -0.6079,-0.86538 -0.9675,-1.47401 -0.1781,-0.30145 -0.4156,-0.56539 -0.5903,-0.86878 -0.2589,-0.44933 -0.4721,-0.92344 -0.7081,-1.38517 -0.386,-0.63252 -0.772,-1.26503 -1.158,-1.89755 -0.2004,-0.16957 -0.3728,-0.37925 -0.6012,-0.50871 -0.05,-0.0284 -0.1223,0.13093 -0.1521,0.0817 -0.2597,-0.42956 -0.4237,-0.91021 -0.6265,-1.36941 -0.9894,-2.24094 -1.7952,-4.55569 -3.3674,-6.49049 -5.6748,-8.36599 -11.9568,-16.2997 -17.5344,-24.73097 -2.1856,-3.6805 -4.2294,-7.04411 -6.2758,-10.80901 -2.8402,-5.22546 -5.3723,-10.62179 -8.4053,-15.74209 -0.7499,-1.04006 -3.2475,-4.4515 -3.9403,-5.61341 -2.8682,-4.81038 -4.7253,-10.19126 -7.0422,-15.26574 -0.9931,-2.64834 -4.7385,-1.24385 -3.7453,1.40449 z" />
    <path
       style="fill:#000000;fill-opacity:1;stroke-width:1.00157"
       id="path16797"
       d="m 1134.9397,807.69682 c -4.8545,-11.20334 -9.9861,-22.28907 -14.7035,-33.55298 -1.6743,-3.89412 -3.6237,-7.66676 -5.3536,-11.53415 -0.6574,-1.46961 -1.2164,-2.98172 -1.8661,-4.45474 -0.3567,-0.80865 -3.5231,-7.54573 -3.8801,-8.30664 -1.662,-3.75959 -3.4829,-7.44556 -5.1933,-11.18263 -1.0166,-2.22116 -1.8908,-4.50876 -2.9845,-6.69298 -0.6359,-1.26984 -2.2068,-3.9051 -2.9323,-5.14291 -0.6036,-0.99636 -1.1963,-1.99944 -1.8109,-2.98908 -1.0233,-1.64754 -2.3946,-3.63824 -3.29,-5.38236 -0.9629,-1.87547 -1.5456,-3.93071 -2.5124,-5.80416 -0.5171,-1.00194 -1.1864,-1.91769 -1.7795,-2.87654 -1.0572,-1.37612 -1.928,-2.87829 -2.9113,-4.30424 -0.1043,-0.15138 -0.983,-1.25368 -1.1389,-1.64483 -0.028,-0.0697 0.1831,0.21283 0.178,0.13794 -0.024,-0.35886 -0.1601,-0.70132 -0.2402,-1.05198 -0.5236,-1.08263 -1.0322,-2.17234 -1.5402,-3.26229 -1.195,-2.56358 -4.8205,-0.8736 -3.6255,1.68999 v 0 c 0.3905,0.83764 0.723,1.72829 1.2699,2.47961 0.1227,0.51333 0.4095,1.75769 0.5593,2.11596 0.2083,0.49796 0.9046,1.31096 1.199,1.73867 0.4228,0.61417 0.8216,1.24454 1.2323,1.86681 0.5444,0.78883 1.0888,1.57766 1.6332,2.36649 0.491,0.76206 1.0585,1.47993 1.473,2.28617 1.0445,2.03204 1.5593,4.31058 2.7488,6.27903 0.941,1.82427 2.244,3.70113 3.3235,5.43865 0.6046,0.9731 1.1875,1.95947 1.7812,2.93921 0.4801,0.81849 2.284,3.85997 2.7339,4.75819 1.1033,2.20305 1.9856,4.51018 3.0109,6.75057 1.7108,3.73812 3.5328,7.42482 5.1947,11.18564 0.2437,0.51932 3.5319,7.51844 3.8127,8.15485 0.675,1.53016 1.2599,3.09923 1.9427,4.62597 1.7037,3.80995 3.624,7.52655 5.2764,11.36132 4.6999,11.21636 9.799,22.26113 14.6474,33.41193 0.9932,2.64834 4.7385,1.24385 3.7454,-1.40449 z" />
    <path
       style="fill:#000000;fill-opacity:1;stroke-width:1.00157"
       id="path16803"
       d="m 1325.7037,814.13058 c 7.0448,5.58011 13.8813,11.4204 20.1162,17.90651 4.0525,4.21572 6.5825,7.53625 10.3795,11.8346 1.4792,1.67452 3.0112,3.30167 4.5168,4.95251 8.5821,8.4535 16.6999,17.34473 24.7338,26.31412 0.9821,1.19604 1.9698,2.38755 2.9464,3.58813 0.6227,0.76548 1.7407,2.26443 2.5637,3.07661 1.2185,1.2025 0.7765,0.44545 2.1849,1.90121 0.4004,0.41384 0.7315,0.88944 1.0973,1.33417 2.4608,1.99136 1.259,1.13069 3.499,2.59224 0.2891,0.18859 0.5455,0.44028 0.8667,0.56642 1.532,0.60154 2.109,0.0306 1.6288,0.48275 2.6022,1.10829 4.1696,-2.57184 1.5673,-3.68013 v 0 c -0.3107,-0.10867 -0.6066,-0.27722 -0.9321,-0.326 -0.063,-0.009 -0.017,0.19957 -0.076,0.17496 -0.3251,-0.13656 -0.5892,-0.38776 -0.8857,-0.57875 -1.8266,-1.17665 -0.6996,-0.39019 -2.6121,-1.81229 -0.5058,-0.58725 -0.9764,-1.20663 -1.5172,-1.76177 -0.4187,-0.42978 -0.9028,-0.79052 -1.3542,-1.18578 -0.167,-0.1303 -0.3491,-0.24325 -0.501,-0.39091 -0.7648,-0.74369 -1.9473,-2.32827 -2.4393,-2.93237 -1.0131,-1.244 -2.0381,-2.47821 -3.0572,-3.71732 -8.0422,-8.9781 -16.1654,-17.88133 -24.7582,-26.34114 -1.4783,-1.61994 -2.983,-3.21616 -4.4349,-4.85983 -3.9789,-4.50455 -6.3416,-7.64743 -10.6223,-12.09373 -6.3599,-6.60593 -13.3269,-12.56059 -20.5104,-18.24421 -2.2627,-1.69706 -4.6627,1.50294 -2.4,3.2 z" />
    <path
       style="fill:#000000;fill-opacity:1;stroke-width:1.00157"
       id="path16805"
       d="m 1206.161,639.83915 c 1.6196,2.08293 3.2631,4.14757 4.8589,6.2488 4.5051,5.93196 6.3121,8.72035 11.0194,14.46295 1.9162,2.33759 3.9537,4.57311 5.9138,6.87398 7.3202,8.59268 5.4526,6.38604 12.1765,14.79227 4.2489,5.27322 5.0207,6.48059 9.6387,11.26699 13.4332,13.92299 -4.462,-5.24302 8.8871,8.75017 1.0196,1.0688 5.5314,6.18298 6.6504,7.44674 3.3603,3.65385 1.1733,1.51158 4.4003,4.25323 0.3126,0.26558 0.5369,0.6615 0.9132,0.8248 0.2662,0.1155 -0.3706,-0.44649 -0.5559,-0.66974 0.454,2.79176 4.4021,2.14979 3.9482,-0.64197 v 0 c -0.2391,-0.55409 -0.3775,-1.16355 -0.7173,-1.66227 -0.9876,-1.44944 -4.778,-2.97857 -4.9938,-4.75583 -1.2977,-1.46547 -5.6347,-6.38456 -6.8201,-7.62682 -13.0508,-13.67739 3.9025,4.47888 -8.7579,-8.61509 -4.529,-4.68422 -5.27,-5.85717 -9.4694,-11.06899 -6.745,-8.42986 -4.9523,-6.31847 -12.2684,-14.90297 -1.9191,-2.25182 -3.9161,-4.43779 -5.7921,-6.72558 -4.6507,-5.67139 -6.5506,-8.57941 -11.0153,-14.45763 -1.5699,-2.06694 -3.1876,-4.09715 -4.7813,-6.14573 -1.6636,-2.28745 -4.8986,0.0652 -3.235,2.35269 z" />
    <path
       style="fill:#000000;fill-opacity:1;stroke-width:1.00157"
       id="path16807"
       d="m 1463.8952,740.26617 c 1.7494,2.08906 3.6768,4.02435 5.428,6.11178 0.5746,0.6848 1.0486,1.45058 1.6311,2.1286 0.4792,0.55785 1.0373,1.04291 1.5482,1.57196 1.1456,1.1864 2.2718,2.39146 3.4118,3.5833 3.4632,4.59425 8.2504,7.93885 11.9587,12.30268 1.6105,2.31632 0.7829,1.25356 2.4536,3.21076 0.3387,0.41052 0.6939,0.80799 1.0161,1.23157 0.3866,0.50814 0.6906,1.0794 1.1088,1.56177 2.0032,2.31031 2.5944,2.48688 4.814,4.65872 6.6677,6.52425 -1.8456,-1.44805 3.7349,3.73303 2.5179,3.5903 5.9895,6.2439 9.2906,9.06221 1.6566,1.39548 3.1806,2.92527 4.6365,4.52414 0.284,0.31192 0.5221,0.67046 0.8444,0.94261 0.8099,0.68383 1.1068,0.73606 1.9702,1.06987 -0.2714,-0.16012 -1.061,-0.67656 -0.8144,-0.48036 0.4985,0.39645 1.065,0.70031 1.5733,1.08399 0.041,0.0313 0.015,0.11263 0.055,0.14547 0.3182,0.26003 0.6834,0.45855 1.0016,0.71852 1.0217,0.8348 2.0556,1.8521 3.0097,2.7589 0.1459,0.25047 0.2917,0.50093 0.4376,0.7514 1.5636,2.3569 4.8968,0.14555 3.3331,-2.21135 v 0 c -0.3391,-0.48057 -0.6783,-0.96114 -1.0174,-1.44172 -1.3647,-1.29299 -2.7041,-2.58641 -4.2392,-3.67777 -0.3374,-0.23986 -0.6096,-0.61816 -1.0103,-0.72221 -0.1951,-0.0507 0.4489,0.6499 0.2843,0.53369 -0.4784,-0.33756 -0.8406,-0.8152 -1.2608,-1.2228 -0.091,-0.0256 -0.1792,-0.0835 -0.2737,-0.0767 -0.041,0.003 -0.04,0.12957 -0.071,0.10154 -0.3242,-0.30055 -0.5872,-0.66119 -0.8854,-0.98765 -1.5646,-1.71303 -3.2025,-3.35255 -4.9773,-4.85187 -1.5889,-1.35607 -3.2534,-2.62451 -4.8032,-4.0252 -1.6428,-1.48484 -2.9371,-3.25844 -4.3683,-4.93113 -4.4105,-4.06245 2.3391,2.21545 -3.7534,-3.74996 -1.1593,-1.13514 -3.1456,-2.74466 -4.256,-4.02929 -0.4786,-0.55374 -0.8357,-1.20242 -1.2797,-1.78432 -0.3401,-0.44574 -0.7141,-0.86455 -1.0712,-1.29682 -1.5678,-1.79625 -0.675,-0.70435 -2.5816,-3.35233 -3.7185,-4.3643 -8.4977,-7.71918 -11.9697,-12.31424 -1.1605,-1.21323 -2.3002,-2.44645 -3.474,-3.64684 -0.3936,-0.40254 -0.8402,-0.75447 -1.2061,-1.18238 -0.6424,-0.75121 -1.1769,-1.58982 -1.8119,-2.34721 -0.098,-0.11635 -5.5383,-6.22548 -5.5893,-6.28275 -2,-2 -4.8284,0.82843 -2.8284,2.82843 z" />
    <path
       style="fill:#000000;fill-opacity:1;stroke-width:1.00157"
       id="path16811"
       d="m 1397.5511,637.42408 c -0.9466,-1.54319 -1.8766,-3.09673 -2.8399,-4.62957 -1.0233,-1.62833 -1.9992,-3.29024 -3.1195,-4.85341 -2.9415,-4.10416 -3.7366,-4.51644 -6.913,-8.17905 -2.306,-2.65882 -3.3599,-4.09614 -5.497,-6.85524 -3.1982,-3.78449 -5.9032,-7.93132 -8.7014,-12.00674 -0.9194,-1.33912 -1.8928,-2.64105 -2.7972,-3.9904 -2.0273,-3.0249 -3.7881,-6.00508 -5.6853,-9.123 -5.7913,-9.81318 -12.5714,-18.96564 -20.0473,-27.55427 -2.3069,-2.65035 -4.7268,-5.2005 -7.0591,-7.82855 -1.059,-1.28155 -0.4003,-0.65575 -2.7312,2.95295 -0.072,0.11225 0.1229,0.40333 0.2324,0.32667 1.1156,-0.78139 2.7471,-1.34584 3.1006,-2.6612 0.2344,-0.87229 -1.2441,-1.30992 -1.8547,-1.97556 -0.5421,-0.59108 -1.0687,-1.19621 -1.6031,-1.79432 -0.7791,-0.37717 -0.5898,-1.38645 -1.0847,-1.93644 -0.3686,-0.40967 -0.8589,-0.69231 -1.2608,-1.0693 -0.021,-0.0194 0.051,-0.0469 0.042,-0.0738 -0.066,-0.19661 -0.1329,-0.39984 -0.2557,-0.56673 -0.2931,-0.39797 -0.6537,-0.74146 -0.9805,-1.11218 -0.4718,-0.78754 -0.1214,-0.30694 -1.274,-1.24934 -2.4182,-1.46693 -4.4928,1.95305 -2.0745,3.41998 v 0 c -0.4098,-0.65918 -0.2958,-0.4611 0.4134,0.54689 0.173,0.16913 0.3707,0.31624 0.5191,0.50741 0.546,0.70374 1.3543,2.27503 1.916,2.15127 0.3237,-0.0714 -0.5389,-1.09246 -0.6264,-0.77266 -0.2894,1.05772 2.3285,1.84166 1.687,2.8243 0.5887,0.65523 1.1489,1.3372 1.7661,1.96568 0.3453,0.35161 0.6268,1.0273 1.1162,0.96941 1.3205,-0.15619 2.5624,-0.81809 3.681,-1.53687 0.1959,-0.12587 -0.1971,-0.63607 -0.4172,-0.56028 -4.2104,1.44922 -4.4208,0.96086 -3.3028,2.29932 2.309,2.60133 4.7046,5.12559 6.9896,7.74801 7.3468,8.43163 14.0068,17.41893 19.6916,27.05914 2.0145,3.30934 3.6847,6.14283 5.827,9.33969 0.8903,1.32857 1.8491,2.61001 2.7545,3.92833 2.849,4.14834 5.6062,8.36728 8.8576,12.22286 2.2443,2.89438 3.2674,4.29369 5.6925,7.08861 2.8781,3.31699 3.8753,3.97902 6.5144,7.65842 1.1057,1.54141 2.0656,3.18242 3.0777,4.78677 0.9034,1.43205 1.7792,2.88136 2.6688,4.32204 1.2649,2.52982 4.8426,0.74097 3.5777,-1.78886 z" />
    <path
       style="fill:#000000;fill-opacity:1;stroke-width:1.00157"
       id="path16821"
       d="m 1427.4143,456.5614 c 2.4585,1.65352 4.7544,3.53274 6.9995,5.46138 0.6985,0.60002 1.3691,1.23239 2.076,1.82242 0.6308,0.52646 5.8144,4.67489 6.4164,5.15731 0.6825,0.59117 3.6366,3.12116 4.441,3.91629 1.2461,1.23168 2.3173,2.62925 3.5127,3.91019 3.8709,4.14798 3.9002,4.07296 8.0883,8.14077 2.0165,2.03138 4.2198,3.87033 6.2482,5.8896 2.3828,2.37207 0.8796,1.08798 3.0353,3.36254 1.0504,1.10823 2.3778,2.29875 3.4973,3.33237 2.5963,2.68012 0.88,0.88822 3.4946,3.67048 0.5268,0.56065 1.0816,1.09605 1.5839,1.67876 0.444,0.51492 0.8345,1.07359 1.2517,1.61038 0.4883,0.60046 0.9563,1.218 1.4648,1.80138 0.605,0.69397 1.2495,1.35251 1.8742,2.02877 1.2967,1.3878 2.7403,2.62533 4.0828,3.96597 0.6485,0.64755 1.2553,1.3358 1.8988,1.9883 0.6585,0.66771 1.349,1.30342 2.0067,1.97185 3.1835,3.23512 -0.1899,-0.0201 2.7272,2.75583 2.2039,2.36058 -0.5849,-0.58254 2.0474,2.03291 0.3437,0.34145 0.6428,0.72671 0.9952,1.05916 1.7388,1.64043 3.5659,3.20218 5.4916,4.61684 0.069,0.0752 0.2708,0.14514 0.2078,0.22558 -0.062,0.0796 -0.2863,-0.28472 -0.2237,-0.20521 0.9683,1.2302 0.3773,0.48315 1.692,1.41632 0.091,0.0645 0.136,0.1785 0.2191,0.25284 0.2217,0.19822 0.4616,0.37492 0.6924,0.56238 0.4552,0.78367 1.1877,1.15731 1.928,1.61527 0.029,0.0179 -0.1282,-0.0468 -0.096,-0.0353 0.3314,0.11877 0.677,0.20397 0.9941,0.35706 0.1733,0.0837 -0.3724,-0.0978 -0.5586,-0.14676 0.074,0.18523 -0.2307,-0.13901 -0.1952,-0.0785 0.5803,0.99158 1.0937,1.09995 2.0888,1.56287 0.153,0.0712 -0.3147,-0.12215 -0.4721,-0.18322 0.3509,0.23001 0.8323,0.49937 1.1563,0.74685 0.022,0.017 0,0.056 0,0.084 0.1644,0.13689 0.3012,0.31651 0.4933,0.41067 0.3992,0.19564 0.8377,0.29794 1.2565,0.44691 2.8052,0.36203 3.3172,-3.60506 0.512,-3.9671 v 0 c 0.2345,0.12519 0.4689,0.25066 0.7036,0.37555 0.032,0.0169 -0.068,-0.0278 -0.095,-0.0514 -0.2586,-0.22662 -0.4931,-0.48071 -0.76,-0.69746 -0.2754,-0.22362 -0.5936,-0.38866 -0.8911,-0.58184 -0.028,-0.0182 0.048,0.0463 0.073,0.0695 -0.2941,-0.16678 -0.5754,-0.35821 -0.8822,-0.50033 -0.1234,-0.0572 0.2254,0.15351 0.3275,0.24334 0.04,0.0353 0.052,0.20219 0.02,0.15903 -0.9491,-1.30052 -0.215,-0.58897 -1.2531,-1.45501 -0.3243,-0.13307 -0.6404,-0.28828 -0.973,-0.3992 -0.2557,-0.0853 0.4741,0.29056 0.7418,0.32207 0.1799,0.0212 -0.2905,-0.22648 -0.4606,-0.28897 -0.05,-0.0183 0.1101,0.17448 0.067,0.14426 -0.2986,-0.20749 -1.1262,-1.17322 -1.2043,-1.2596 -0.183,-0.14801 -1.6566,-1.4984 -1.6826,-1.22874 -0.01,0.0894 0.1585,0.31964 0.1036,0.24861 -1.0993,-1.42189 0.036,-0.28453 -1.1714,-1.397 -1.7251,-1.24513 -3.3946,-2.67201 -4.9408,-4.13205 -0.4161,-0.39295 -0.7765,-0.84147 -1.1826,-1.24481 -2.7835,-2.76469 1.0427,1.24109 -2.0147,-2.0022 -2.46,-2.3229 0.379,0.39879 -2.6768,-2.70726 -0.6284,-0.63868 -1.2893,-1.24474 -1.9186,-1.88251 -0.6864,-0.69568 -1.3366,-1.42668 -2.028,-2.11736 -1.2843,-1.28297 -2.665,-2.46752 -3.9102,-3.79083 -0.5684,-0.61139 -1.1562,-1.20535 -1.7052,-1.83418 -4.1176,-4.71596 1.3883,1.3553 -2.9102,-3.63279 -0.499,-0.57908 -1.0503,-1.111 -1.5739,-1.66801 -2.6694,-2.84002 -0.9598,-1.05885 -3.7016,-3.87605 -0.8156,-0.75184 -2.4132,-2.19612 -3.201,-3.0283 -2.4965,-2.6374 -0.4492,-0.798 -3.2977,-3.63494 -2.0149,-2.00668 -4.2039,-3.83389 -6.2082,-5.85132 -4.0547,-3.93455 -4.1454,-3.92153 -7.8944,-7.93876 -0.4228,-0.4531 -3.1755,-3.58232 -3.8143,-4.21297 -0.8532,-0.84224 -3.8978,-3.44397 -4.6183,-4.067 -0.3225,-0.25848 -5.8513,-4.68502 -6.2793,-5.04235 -0.729,-0.60856 -1.421,-1.26031 -2.1416,-1.87873 -2.284,-1.96004 -4.6184,-3.87213 -7.1165,-5.55598 -2.2326,-1.73649 -4.6884,1.42092 -2.4558,3.15741 z" />
    <path
       style="fill:#000000;fill-opacity:1;stroke-width:1.00157"
       d="m 986.46606,342.29301 c -2.43451,-7.04381 -111.01395,-10.8525 -145.09718,-6.32974 -17.69648,9.21384 -25.63591,17.40399 -31.64872,29.2142 -4.29387,23.0291 -5.99184,38.91714 19.96304,47.71652 37.44773,12.07853 119.01135,18.94683 169.44235,-0.4869 5.51045,-2.12346 48.37435,-10.95699 39.43915,-26.77969 1.6837,-17.19307 -8.9418,-39.36704 -52.09864,-43.33439 z"
       id="path16823"
       sodipodi:nodetypes="ccccscc" />
    <path
       style="fill:#502d16;fill-opacity:1;stroke-width:1.00157"
       d="m 893.46754,393.90476 c -5.04557,-63.30916 -16.80108,-117.3446 -47.71653,-184.53635 0.13347,-16.45008 8.95526,-15.52351 16.55472,-17.04161 38.32957,67.25401 60.31424,127.35427 74.00929,201.09106 -13.56832,-4.83695 -27.90239,-4.31355 -42.84748,0.4869 z"
       id="path16879"
       sodipodi:nodetypes="ccccc" />
    <path
       style="fill:#bcbd2f;fill-opacity:1;stroke-width:1.37934"
       d="m 343.60403,1358.9616 c -90.04829,-1.249 -132.52573,-8.7894 -148.38187,-26.3403 -5.80295,-6.4232 -7.26719,-10.8233 -18.85932,-56.6729 -30.25849,-119.6795 -49.61181,-240.7548 -41.2785,-258.2404 3.6589,-7.6774 9.23211,-7.6751 122.44654,0.05 15.52759,1.0595 50.54357,2.6868 77.81327,3.6162 l 49.58128,1.6899 112.3861,159.15 c 61.81234,87.5326 112.23135,159.3407 112.04222,159.5737 -1.22276,1.5061 -60.60157,8.6721 -98.42351,11.878 -45.9059,3.8911 -113.76554,6.0389 -167.32621,5.296 z"
       id="path19073" />
    <path
       style="fill:#bcbd2f;fill-opacity:1;stroke-width:1.00157"
       d="m 1488.0326,1021.1719 c 126.6259,-9.2549 270.8248,-21.76662 324.1517,-68.16994 1.8131,-24.34259 -5.5997,-56.31759 17.2146,8.26302 -5.2497,130.37302 -8.5793,229.06562 -10.1567,298.84602 -43.7976,52.6303 -108.996,70.6902 -176.2778,85.3845 -118.7313,10.8958 -243.055,6.4123 -369.0817,-2.7543 89.3463,-95.7047 181.626,-190.3506 214.1499,-321.5693 z"
       id="path19476"
       sodipodi:nodetypes="ccccccc" />
    <path
       style="fill:#808000;fill-opacity:1;stroke-width:1.00157"
       d="m 1514.1989,871.06032 c -3.2578,51.23111 -13.6723,100.67305 -24.1005,150.11158 172.5924,-8.3815 317.7211,-37.6304 325.0123,-80.56447 5.7476,-16.98782 -10.5437,-27.62372 -17.7311,-31.84707 -36.7612,-24.81948 -134.4563,-34.90611 -283.1807,-37.70004 z"
       id="path19478"
       sodipodi:nodetypes="ccccc" />
  </g>
</svg>
