<?xml version="1.0" encoding="UTF-8" standalone="no"?>
<svg
   width="1922"
   height="331"
   viewBox="0 0 1922 331"
   fill="none"
   version="1.1"
   id="svg188"
   xmlns="http://www.w3.org/2000/svg"
   xmlns:svg="http://www.w3.org/2000/svg">
  <defs
     id="defs192" />
  <path
     style="fill:#00a3a3"
     id="path1552"
     d="m 3.3525484,82.801648 c 3.2198968,-1.081351 6.4421728,-2.154519 9.6791666,-3.184094 6.120139,-2.042887 12.306136,-3.863848 18.520894,-5.593173 8.781957,-2.441916 17.752145,-4.062105 26.737082,-5.537081 11.162958,-1.849051 22.390081,-3.258783 33.630526,-4.53651 11.704023,-1.283361 23.454893,-2.025819 35.218063,-2.460483 11.27578,-0.489242 22.55733,-0.239854 33.83024,0.154002 10.749,0.447043 21.4524,1.556165 32.12782,2.847484 10.32636,1.258153 20.58385,2.998939 30.81458,4.86713 9.94449,1.823116 19.81923,3.994312 29.67198,6.254379 9.99345,2.288895 19.95266,4.718982 29.88995,7.239296 10.01597,2.467901 20.01161,5.0167 30.01249,7.544721 11.30066,2.97242 22.72344,5.421773 34.19376,7.634865 14.41586,2.704966 28.98761,4.423436 43.55962,6.020316 16.27776,1.73828 32.59768,3.03124 48.92279,4.22634 16.27241,1.19407 32.57758,1.76632 48.88741,2.09314 16.38432,0.22845 32.77113,0.005 49.14462,-0.60504 16.58207,-0.73298 33.14429,-1.88555 49.68137,-3.29883 16.40966,-1.32392 32.70206,-3.69875 48.93609,-6.38351 14.71738,-2.477718 29.39052,-5.211323 44.06652,-7.921533 12.80685,-2.366664 25.62945,-4.642591 38.49141,-6.6895 12.86933,-2.013232 25.78069,-3.735179 38.70095,-5.383682 14.04588,-1.72288 28.12241,-3.181753 42.2093,-4.523132 13.88983,-1.333712 27.80184,-2.401116 41.73287,-3.188816 12.19605,-0.759245 24.40749,-1.017033 36.62409,-1.029781 10.92018,-0.0052 21.82764,0.562508 32.70366,1.506601 10.81883,1.01628 21.58514,2.509751 32.30574,4.270055 10.75854,1.857352 21.47383,3.958307 32.17887,6.10003 10.58633,2.175536 21.16558,4.386438 31.73589,6.639011 11.5101,2.421991 22.986,5.001799 34.473,7.530152 12.7301,2.826115 25.5067,5.433355 38.3047,7.931165 13.8925,2.73478 27.849,5.12212 41.8413,7.2826 14.4521,2.19653 28.974,3.88141 43.5039,5.46419 14.0345,1.5915 28.1171,2.64962 42.2143,3.47904 13.9765,0.78954 27.9735,0.99587 41.9691,0.99959 13.1564,-0.0546 26.3027,-0.65627 39.4337,-1.43307 12.7614,-0.7862 25.4963,-1.9031 38.2117,-3.23 13.7917,-1.39306 27.4897,-3.51825 41.1687,-5.73088 14.0923,-2.39895 28.1218,-5.14872 42.1366,-7.96051 13.7331,-2.8902 27.5263,-5.473183 41.3241,-8.030913 12.6173,-2.370725 25.3022,-4.344578 37.9955,-6.255241 12.7776,-1.949529 25.6169,-3.445696 38.4679,-4.812199 12.5635,-1.338447 25.1663,-2.254055 37.7783,-2.98181 12.2633,-0.655161 24.5452,-0.74356 36.8214,-0.551933 11.9892,0.205834 23.9693,0.744502 35.9399,1.423704 11.599,0.677827 23.1583,1.868746 34.6992,3.18713 11.6863,1.358003 23.3229,3.102862 34.9418,4.941571 10.5746,1.71993 21.1073,3.677099 31.584,5.915786 10.4679,2.288299 20.7663,5.240105 31.024,8.317065 10.127,3.08894 20.2376,6.23165 30.3279,9.43861 9.9283,3.22907 19.9608,6.11716 29.9995,8.97866 9.7274,2.80958 19.5682,5.18277 29.4642,7.31163 9.546,1.97864 19.1486,3.68215 28.7875,5.13864 8.9395,1.36445 17.9404,2.20949 26.9562,2.85554 8.4524,0.56508 16.9259,0.53372 25.3919,0.48216 5.3227,-0.10114 2.6838,-0.042 7.9165,-0.1764 5.3433,-0.13731 5.1491,-7.69387 -0.1941,-7.55656 v 0 c -5.1501,0.13245 -2.5606,0.0742 -7.7685,0.17404 -8.2705,0.0505 -16.5485,0.0858 -24.8059,-0.46299 -8.8189,-0.63106 -17.6233,-1.45539 -26.3675,-2.79012 -9.4849,-1.43101 -18.9332,-3.11032 -28.3268,-5.0544 -9.734,-2.09275 -19.4135,-4.42743 -28.9814,-7.19102 -9.9658,-2.84075 -19.9259,-5.70693 -29.782,-8.91315 -10.1295,-3.21936 -20.2793,-6.37433 -30.4458,-9.47501 -10.4532,-3.135135 -20.9489,-6.139182 -31.6166,-8.468979 -10.6089,-2.265406 -21.2737,-4.2496 -31.9817,-5.989668 -11.7266,-1.855287 -23.4708,-3.61584 -35.2654,-4.985635 -11.6839,-1.33419 -23.3863,-2.538526 -35.1289,-3.223827 -12.0741,-0.684541 -24.1577,-1.227896 -36.2504,-1.434918 -12.4606,-0.193167 -24.9272,-0.103261 -37.3746,0.56358 -12.7335,0.735217 -25.4576,1.660072 -38.1421,3.011636 -12.9598,1.378457 -25.9078,2.887973 -38.7936,4.85402 -12.7778,1.923414 -25.5469,3.911366 -38.2482,6.297655 -13.8343,2.564487 -27.6638,5.154506 -41.4333,8.05199 -13.9218,2.793276 -27.8581,5.525106 -41.8567,7.909806 -13.5387,2.19023 -27.0959,4.2961 -40.7463,5.67473 -12.6029,1.31564 -25.2251,2.42261 -37.8736,3.20236 -12.9816,0.76864 -25.9785,1.36425 -38.9852,1.41987 -13.8482,-0.003 -27.6979,-0.2063 -41.5271,-0.98655 -13.9722,-0.82159 -27.9298,-1.86977 -41.8397,-3.44764 -14.418,-1.57037 -28.8282,-3.24126 -43.1691,-5.42013 -13.8938,-2.14467 -27.7519,-4.51575 -41.5466,-7.231124 -12.7389,-2.486167 -25.4566,-5.081295 -38.1278,-7.894438 -11.5035,-2.53197 -22.9959,-5.115377 -34.5225,-7.540854 -10.60107,-2.259108 -21.21116,-4.476507 -31.82842,-6.658141 -10.79103,-2.158764 -21.59239,-4.276483 -32.43761,-6.147129 -10.91041,-1.789506 -21.86686,-3.310442 -32.87727,-4.341609 -11.09595,-0.959949 -22.22346,-1.542138 -33.3643,-1.53482 -12.35631,0.01337 -24.70747,0.27484 -37.04301,1.041845 -14.02766,0.79403 -28.03632,1.867357 -42.02251,3.210792 -14.16706,1.349224 -28.32371,2.816465 -42.44947,4.549881 -12.99753,1.65855 -25.9861,3.391121 -38.93235,5.416854 -12.92353,2.0572 -25.8078,4.342816 -38.67597,6.721225 -14.62972,2.701729 -29.25659,5.426778 -43.92748,7.897197 -16.03824,2.653868 -32.13422,5.001851 -48.34626,6.309627 -16.41649,1.403894 -32.85808,2.547174 -49.3192,3.276604 -16.22919,0.60594 -32.47168,0.82576 -48.71166,0.60131 -16.17618,-0.32344 -32.34773,-0.89055 -48.48682,-2.07448 -16.23451,-1.18832 -32.46389,-2.473518 -48.65137,-4.20155 -14.36818,-1.573952 -28.73656,-3.264534 -42.9513,-5.928479 -11.32944,-2.18451 -22.61143,-4.604585 -33.77285,-7.541155 -9.99896,-2.527533 -19.99266,-5.075908 -30.00673,-7.54326 -9.99327,-2.534421 -20.00857,-4.97814 -30.05828,-7.279944 -9.96304,-2.285066 -19.94844,-4.479663 -30.00424,-6.322779 -10.3802,-1.894913 -20.78767,-3.659619 -31.26488,-4.935397 -10.88921,-1.316135 -21.80711,-2.444745 -32.77139,-2.897537 -11.45402,-0.399806 -22.91685,-0.649357 -34.37372,-0.153432 -11.95497,0.44346 -23.89756,1.19751 -35.792299,2.503694 -11.364525,1.292287 -22.71551,2.718487 -34.001717,4.58806 -9.254814,1.520752 -18.493273,3.196683 -27.538588,5.713879 -6.303419,1.754369 -12.577977,3.601094 -18.785829,5.67215 -3.334753,1.06104 -6.6550456,2.165237 -9.9708833,3.283487 -5.0232514,1.826637 -2.4399968,8.930588 2.5832547,7.103951 z" />
  <path
     style="fill:#00a3a3"
     id="path1552-0"
     d="m -0.63005429,145.02385 c 3.21989699,-1.08135 6.44217299,-2.15452 9.67916699,-3.1841 6.1201393,-2.04288 12.3061363,-3.86384 18.5208943,-5.59317 8.781957,-2.44192 17.752145,-4.0621 26.737082,-5.53708 11.162958,-1.84905 22.390086,-3.25878 33.630526,-4.53651 11.70402,-1.28336 23.454885,-2.02582 35.218055,-2.46048 11.27578,-0.48925 22.55733,-0.23986 33.83024,0.154 10.749,0.44704 21.4524,1.55616 32.12782,2.84748 10.32636,1.25816 20.58385,2.99894 30.81458,4.86713 9.94449,1.82312 19.81923,3.99431 29.67198,6.25438 9.99345,2.2889 19.95266,4.71898 29.88995,7.2393 10.01597,2.4679 20.01161,5.0167 30.01249,7.54472 11.30066,2.97242 22.72344,5.42177 34.19376,7.63486 14.41586,2.70497 28.98761,4.42344 43.55962,6.02032 16.27776,1.73828 32.59768,3.03124 48.92279,4.22634 16.27241,1.19407 32.57758,1.76632 48.88741,2.09314 16.38432,0.22845 32.77113,0.005 49.14462,-0.60504 16.58207,-0.73298 33.14429,-1.88555 49.68137,-3.29883 16.40966,-1.32392 32.70206,-3.69875 48.93609,-6.38351 14.71738,-2.47772 29.39052,-5.21132 44.06652,-7.92153 12.80685,-2.36667 25.62945,-4.64259 38.49141,-6.6895 12.86933,-2.01324 25.78069,-3.73518 38.70095,-5.38369 14.04588,-1.72287 28.12241,-3.18175 42.2093,-4.52313 13.88983,-1.33371 27.80184,-2.40111 41.73287,-3.18881 12.19605,-0.75925 24.40749,-1.01704 36.62409,-1.02978 10.92018,-0.005 21.82764,0.5625 32.70366,1.5066 10.81883,1.01628 21.58514,2.50975 32.30574,4.27005 10.75854,1.85735 21.47383,3.95831 32.1789,6.10003 10.5863,2.17554 21.1656,4.38644 31.73587,6.63901 11.5101,2.42199 22.986,5.0018 34.473,7.53016 12.7301,2.82611 25.5067,5.43335 38.3047,7.93116 13.8925,2.73478 27.849,5.12212 41.8413,7.2826 14.4521,2.19653 28.974,3.88141 43.5039,5.46419 14.0345,1.5915 28.1171,2.64962 42.2143,3.47904 13.9765,0.78954 27.9735,0.99587 41.9691,0.99959 13.1564,-0.0546 26.3027,-0.65627 39.4337,-1.43307 12.7614,-0.7862 25.4963,-1.9031 38.2117,-3.23 13.7917,-1.39306 27.4897,-3.51825 41.1687,-5.73088 14.0923,-2.39895 28.1218,-5.14872 42.1366,-7.96051 13.7331,-2.8902 27.5263,-5.47318 41.3241,-8.03091 12.6173,-2.37073 25.3022,-4.34458 37.9955,-6.25524 12.7776,-1.94953 25.6169,-3.4457 38.4679,-4.8122 12.5635,-1.33845 25.1663,-2.25406 37.7783,-2.98181 12.2633,-0.65516 24.5452,-0.74356 36.8214,-0.55194 11.9892,0.20584 23.9693,0.74451 35.9399,1.42371 11.599,0.67782 23.1583,1.86874 34.6992,3.18713 11.6863,1.358 23.3229,3.10286 34.9418,4.94157 10.5746,1.71993 21.1073,3.6771 31.584,5.91578 10.4679,2.2883 20.7663,5.24011 31.024,8.31707 10.127,3.08894 20.2376,6.23165 30.3279,9.43861 9.9283,3.22907 19.9608,6.11716 29.9995,8.97866 9.7274,2.80958 19.5682,5.18277 29.4642,7.31163 9.546,1.97864 19.1486,3.68215 28.7875,5.13864 8.9395,1.36445 17.9404,2.20949 26.9562,2.85554 8.4524,0.56508 16.9259,0.53372 25.3919,0.48216 5.3227,-0.10114 2.6838,-0.042 7.9165,-0.1764 5.3433,-0.13731 5.1491,-7.69387 -0.1941,-7.55656 v 0 c -5.1501,0.13245 -2.5606,0.0742 -7.7685,0.17404 -8.2705,0.0505 -16.5485,0.0858 -24.8059,-0.46299 -8.8189,-0.63106 -17.6233,-1.45539 -26.3675,-2.79012 -9.4849,-1.43101 -18.9332,-3.11032 -28.3268,-5.0544 -9.734,-2.09275 -19.4135,-4.42743 -28.9814,-7.19102 -9.9658,-2.84075 -19.9259,-5.70693 -29.782,-8.91315 -10.1295,-3.21936 -20.2793,-6.37433 -30.4458,-9.47501 -10.4532,-3.13514 -20.9489,-6.13918 -31.6166,-8.46898 -10.6089,-2.26541 -21.2737,-4.2496 -31.9817,-5.98967 -11.7266,-1.85528 -23.4708,-3.61584 -35.2654,-4.98563 -11.6839,-1.33419 -23.3863,-2.53853 -35.1289,-3.22383 -12.0741,-0.68454 -24.1577,-1.22789 -36.2504,-1.43492 -12.4606,-0.19316 -24.9272,-0.10326 -37.3746,0.56358 -12.7335,0.73522 -25.4576,1.66007 -38.1421,3.01164 -12.9598,1.37846 -25.9078,2.88797 -38.7936,4.85402 -12.7778,1.92341 -25.5469,3.91137 -38.2482,6.29765 -13.8343,2.56449 -27.6638,5.15451 -41.4333,8.05199 -13.9218,2.79328 -27.8581,5.52511 -41.8567,7.90981 -13.5387,2.19023 -27.0959,4.2961 -40.7463,5.67473 -12.6029,1.31564 -25.2251,2.42261 -37.8736,3.20236 -12.9816,0.76864 -25.9785,1.36425 -38.9852,1.41987 -13.8482,-0.003 -27.6979,-0.2063 -41.5271,-0.98655 -13.9722,-0.82159 -27.9298,-1.86977 -41.8397,-3.44764 -14.418,-1.57037 -28.8282,-3.24126 -43.1691,-5.42013 -13.8938,-2.14467 -27.7519,-4.51575 -41.5466,-7.23112 -12.7389,-2.48617 -25.4566,-5.0813 -38.1278,-7.89444 -11.5035,-2.53197 -22.9959,-5.11538 -34.5225,-7.54086 -10.60107,-2.2591 -21.21117,-4.4765 -31.82837,-6.65814 -10.79109,-2.15876 -21.59245,-4.27648 -32.43767,-6.14713 -10.91041,-1.7895 -21.86686,-3.31044 -32.87727,-4.3416 -11.09595,-0.95995 -22.22346,-1.54214 -33.3643,-1.53482 -12.35631,0.0134 -24.70747,0.27484 -37.04301,1.04184 -14.02766,0.79403 -28.03632,1.86736 -42.02251,3.21079 -14.16706,1.34923 -28.32371,2.81647 -42.44947,4.54988 -12.99753,1.65855 -25.9861,3.39112 -38.93235,5.41686 -12.92353,2.0572 -25.8078,4.34281 -38.67597,6.72122 -14.62972,2.70173 -29.25659,5.42678 -43.92748,7.8972 -16.03824,2.65387 -32.13422,5.00185 -48.34626,6.30963 -16.41649,1.40389 -32.85808,2.54717 -49.3192,3.2766 -16.22919,0.60594 -32.47168,0.82576 -48.71166,0.60131 -16.17618,-0.32344 -32.34773,-0.89055 -48.48682,-2.07448 -16.23451,-1.18832 -32.46389,-2.47352 -48.65137,-4.20155 -14.36818,-1.57395 -28.73656,-3.26453 -42.9513,-5.92848 -11.32944,-2.18451 -22.61143,-4.60458 -33.77285,-7.54115 -9.99896,-2.52754 -19.99266,-5.07591 -30.00673,-7.54326 -9.99327,-2.53442 -20.00857,-4.97814 -30.05828,-7.27995 -9.96304,-2.28506 -19.94844,-4.47966 -30.00424,-6.32278 -10.3802,-1.89491 -20.78767,-3.65962 -31.26488,-4.93539 -10.88921,-1.31614 -21.80711,-2.44475 -32.77139,-2.89754 -11.45402,-0.39981 -22.91685,-0.64936 -34.37372,-0.15343 -11.95497,0.44346 -23.897555,1.19751 -35.792295,2.50369 -11.36452,1.29229 -22.715506,2.71849 -34.001713,4.58806 -9.254814,1.52075 -18.493273,3.19668 -27.538588,5.71388 -6.303419,1.75437 -12.577977,3.60109 -18.7858293,5.67215 -3.334753,1.06104 -6.65504599,2.16524 -9.970883,3.28349 -5.023252,1.82663 -2.439997,8.93059 2.58325401,7.10395 z" />
  <path
     style="fill:#00a3a3"
     id="path1552-5"
     d="m -3.8069108,206.97261 c 3.21989997,-1.08135 6.44217,-2.15452 9.67916,-3.1841 6.1201398,-2.04288 12.3061398,-3.86384 18.5208998,-5.59317 8.78196,-2.44191 17.75214,-4.0621 26.73708,-5.53708 11.16296,-1.84905 22.39008,-3.25878 33.63053,-4.53651 11.70402,-1.28336 23.454891,-2.02582 35.218061,-2.46048 11.27578,-0.48925 22.55733,-0.23986 33.83024,0.154 10.749,0.44704 21.4524,1.55616 32.12782,2.84748 10.32636,1.25816 20.58385,2.99894 30.81458,4.86713 9.94449,1.82312 19.81923,3.99431 29.67198,6.25438 9.99345,2.2889 19.95266,4.71898 29.88995,7.2393 10.01597,2.4679 20.01161,5.0167 30.01249,7.54472 11.30066,2.97242 22.72344,5.42177 34.19376,7.63486 14.41586,2.70497 28.98761,4.42344 43.55962,6.02032 16.27776,1.73828 32.59768,3.03124 48.92279,4.22634 16.27241,1.19407 32.57758,1.76632 48.88741,2.09314 16.38432,0.22845 32.77113,0.005 49.14462,-0.60504 16.58207,-0.73298 33.14429,-1.88555 49.68137,-3.29883 16.40966,-1.32392 32.70206,-3.69875 48.93609,-6.38351 14.71738,-2.47772 29.39052,-5.21132 44.06652,-7.92153 12.80685,-2.36667 25.62945,-4.64259 38.49141,-6.6895 12.86933,-2.01324 25.78069,-3.73518 38.70093,-5.38369 14.0459,-1.72287 28.1224,-3.18175 42.2093,-4.52313 13.8899,-1.33371 27.8019,-2.40111 41.7329,-3.18881 12.196,-0.75925 24.4075,-1.01704 36.6241,-1.02978 10.9202,-0.005 21.8276,0.5625 32.7036,1.5066 10.8189,1.01628 21.5852,2.50975 32.3058,4.27005 10.7585,1.85735 21.4738,3.95831 32.1789,6.10003 10.5863,2.17554 21.1655,4.38644 31.7358,6.63901 11.5101,2.42199 22.986,5.0018 34.473,7.53015 12.7301,2.82612 25.5067,5.43336 38.3047,7.93117 13.8925,2.73478 27.849,5.12212 41.8413,7.2826 14.4521,2.19653 28.974,3.88141 43.5039,5.46419 14.0345,1.5915 28.1171,2.64962 42.2143,3.47904 13.9765,0.78954 27.9735,0.99587 41.9691,0.99959 13.1564,-0.0546 26.3027,-0.65627 39.4337,-1.43307 12.7614,-0.7862 25.4963,-1.9031 38.2117,-3.23 13.7917,-1.39306 27.4897,-3.51825 41.1687,-5.73088 14.0923,-2.39895 28.1218,-5.14872 42.1366,-7.96051 13.7331,-2.8902 27.5263,-5.47318 41.3241,-8.03091 12.6173,-2.37073 25.3022,-4.34458 37.9955,-6.25524 12.7776,-1.94953 25.6169,-3.4457 38.4679,-4.8122 12.5635,-1.33845 25.1663,-2.25406 37.7783,-2.98181 12.2633,-0.65516 24.5452,-0.74356 36.8214,-0.55194 11.9892,0.20584 23.9693,0.74451 35.9399,1.42371 11.599,0.67783 23.1583,1.86874 34.6992,3.18713 11.6863,1.358 23.3229,3.10286 34.9418,4.94157 10.5746,1.71993 21.1073,3.6771 31.584,5.91578 10.4679,2.2883 20.7663,5.24011 31.024,8.31707 10.127,3.08894 20.2376,6.23165 30.3279,9.43861 9.9283,3.22907 19.9608,6.11716 29.9995,8.97866 9.7274,2.80958 19.5682,5.18277 29.4642,7.31163 9.546,1.97864 19.1486,3.68215 28.7875,5.13864 8.9395,1.36445 17.9404,2.20949 26.9562,2.85554 8.4524,0.56508 16.9259,0.53372 25.3919,0.48216 5.3227,-0.10114 2.6838,-0.042 7.9165,-0.1764 5.3433,-0.13731 5.1491,-7.69387 -0.1941,-7.55656 v 0 c -5.1501,0.13245 -2.5606,0.0742 -7.7685,0.17404 -8.2705,0.0505 -16.5485,0.0858 -24.8059,-0.46299 -8.8189,-0.63106 -17.6233,-1.45539 -26.3675,-2.79012 -9.4849,-1.43101 -18.9332,-3.11032 -28.3268,-5.0544 -9.734,-2.09275 -19.4135,-4.42743 -28.9814,-7.19102 -9.9658,-2.84075 -19.9259,-5.70693 -29.782,-8.91315 -10.1295,-3.21936 -20.2793,-6.37433 -30.4458,-9.47501 -10.4532,-3.13513 -20.9489,-6.13918 -31.6166,-8.46898 -10.6089,-2.2654 -21.2737,-4.2496 -31.9817,-5.98967 -11.7266,-1.85528 -23.4708,-3.61584 -35.2654,-4.98563 -11.6839,-1.33419 -23.3863,-2.53853 -35.1289,-3.22383 -12.0741,-0.68454 -24.1577,-1.22789 -36.2504,-1.43492 -12.4606,-0.19316 -24.9272,-0.10326 -37.3746,0.56358 -12.7335,0.73522 -25.4576,1.66008 -38.1421,3.01164 -12.9598,1.37846 -25.9078,2.88797 -38.7936,4.85402 -12.7778,1.92341 -25.5469,3.91137 -38.2482,6.29765 -13.8343,2.56449 -27.6638,5.15451 -41.4333,8.05199 -13.9218,2.79328 -27.8581,5.52511 -41.8567,7.90981 -13.5387,2.19023 -27.0959,4.2961 -40.7463,5.67473 -12.6029,1.31564 -25.2251,2.42261 -37.8736,3.20236 -12.9816,0.76864 -25.9785,1.36425 -38.9852,1.41987 -13.8482,-0.003 -27.6979,-0.2063 -41.5271,-0.98655 -13.9722,-0.82159 -27.9298,-1.86977 -41.8397,-3.44764 -14.418,-1.57037 -28.8282,-3.24126 -43.1691,-5.42013 -13.8938,-2.14467 -27.7519,-4.51575 -41.5466,-7.23112 -12.7389,-2.48617 -25.4566,-5.0813 -38.1278,-7.89444 -11.5035,-2.53197 -22.9959,-5.11538 -34.5225,-7.54086 -10.601,-2.2591 -21.2111,-4.4765 -31.8284,-6.65814 -10.791,-2.15876 -21.5924,-4.27648 -32.4376,-6.14713 -10.9104,-1.7895 -21.8668,-3.31044 -32.8773,-4.3416 -11.0959,-0.95995 -22.2234,-1.54214 -33.3643,-1.53482 -12.3563,0.0134 -24.7074,0.27484 -37.043,1.04184 -14.0276,0.79403 -28.0363,1.86736 -42.0225,3.21079 -14.167,1.34923 -28.3237,2.81647 -42.4494,4.54988 -12.99758,1.65855 -25.98615,3.39112 -38.9324,5.41686 -12.92353,2.0572 -25.8078,4.34281 -38.67597,6.72122 -14.62972,2.70173 -29.25659,5.42678 -43.92748,7.8972 -16.03824,2.65387 -32.13422,5.00185 -48.34626,6.30963 -16.41649,1.40389 -32.85808,2.54717 -49.3192,3.2766 -16.22919,0.60594 -32.47168,0.82576 -48.71166,0.60131 -16.17618,-0.32344 -32.34773,-0.89055 -48.48682,-2.07448 -16.23451,-1.18832 -32.46389,-2.47352 -48.65137,-4.20155 -14.36818,-1.57395 -28.73656,-3.26453 -42.9513,-5.92848 -11.32944,-2.18451 -22.61143,-4.60458 -33.77285,-7.54115 -9.99896,-2.52754 -19.99266,-5.07591 -30.00673,-7.54326 -9.99327,-2.53442 -20.00857,-4.97814 -30.05828,-7.27995 -9.96304,-2.28506 -19.94844,-4.47966 -30.00424,-6.32278 -10.3802,-1.89491 -20.78767,-3.65962 -31.26488,-4.93539 -10.88921,-1.31614 -21.80711,-2.44475 -32.77139,-2.89754 -11.45402,-0.39981 -22.91685,-0.64936 -34.37372,-0.15343 -11.95497,0.44346 -23.897561,1.19751 -35.792301,2.50369 -11.36452,1.29229 -22.71551,2.71849 -34.00172,4.58806 -9.25481,1.52075 -18.49327,3.19668 -27.53858,5.71388 -6.30342,1.75437 -12.5779798,3.60109 -18.7858298,5.67215 -3.33476003,1.06104 -6.65505,2.16524 -9.97089,3.28349 -5.0232502,1.82663 -2.43999,8.93059 2.58326,7.10395 z" />
</svg>
