<svg width="348" height="405" viewBox="0 0 348 405" fill="none" xmlns="http://www.w3.org/2000/svg">
<g filter="url(#filter0_d_102_5)">
<path d="M35.8197 76.8502C28.8797 154.437 25.4599 196.752 23.7966 261.071C26.1834 286.056 30.724 296.852 48.7766 306.145C121.414 337.395 172.093 361.451 231.548 384.048C256.602 386.669 266.346 381.31 276.168 367.773C296.365 318.162 306.155 262.253 325.225 191.999C330.102 164.586 326.087 152.679 305.783 138.093C230.166 94.2136 119.874 33.352 119.874 33.352C119.874 33.352 99.0395 19.7999 85.5624 20.8509C69.5933 23.685 62.2289 28.1534 52.5733 37.8912C41.3974 49.409 37.7579 57.9507 35.8197 76.8502Z" fill="#D7C04A"/>
<path d="M35.8197 76.8502C28.8797 154.437 25.4599 196.752 23.7966 261.071C26.1834 286.056 30.724 296.852 48.7766 306.145C121.414 337.395 172.093 361.451 231.548 384.048C256.602 386.669 266.346 381.31 276.168 367.773C296.365 318.162 306.155 262.253 325.225 191.999C330.102 164.586 326.087 152.679 305.783 138.093C230.166 94.2136 119.874 33.352 119.874 33.352C119.874 33.352 99.0395 19.7999 85.5624 20.8509C69.5933 23.685 62.2289 28.1534 52.5733 37.8912C41.3974 49.409 37.7579 57.9507 35.8197 76.8502Z" fill="url(#paint0_linear_102_5)"/>
</g>
<path d="M39.6868 78.3789C42.7256 156.216 44.7452 198.621 51.3207 262.624C56.883 287.099 62.7669 297.226 81.8597 304.134C157.897 325.838 211.237 343.216 273.092 358.024C298.277 357.42 307.255 350.859 315.265 336.177C328.953 284.391 331.512 227.689 341.442 155.573C342.773 127.761 337.267 116.465 315.265 104.596C234.658 70.7465 117.489 24.4889 117.489 24.4889C117.489 24.4889 95.0918 13.7124 81.8597 16.4782C66.3842 21.3312 59.6517 26.7047 51.3207 37.5973C41.7095 50.4498 39.1921 59.3867 39.6868 78.3789Z" fill="#898989"/>
<path d="M39.6868 78.3789C42.7256 156.216 44.7452 198.621 51.3207 262.624C56.883 287.099 62.7669 297.226 81.8597 304.134C157.897 325.838 211.237 343.216 273.092 358.024C298.277 357.42 307.255 350.859 315.265 336.177C328.953 284.391 331.512 227.689 341.442 155.573C342.773 127.761 337.267 116.465 315.265 104.596C234.658 70.7465 117.489 24.4889 117.489 24.4889C117.489 24.4889 95.0918 13.7124 81.8597 16.4782C66.3842 21.3312 59.6517 26.7047 51.3207 37.5973C41.7095 50.4498 39.1921 59.3867 39.6868 78.3789Z" fill="url(#paint1_linear_102_5)"/>
<defs>
<filter id="filter0_d_102_5" x="3.79639" y="0.792786" width="343.304" height="403.9" filterUnits="userSpaceOnUse" color-interpolation-filters="sRGB">
<feFlood flood-opacity="0" result="BackgroundImageFix"/>
<feColorMatrix in="SourceAlpha" type="matrix" values="0 0 0 0 0 0 0 0 0 0 0 0 0 0 0 0 0 0 127 0" result="hardAlpha"/>
<feOffset/>
<feGaussianBlur stdDeviation="10"/>
<feComposite in2="hardAlpha" operator="out"/>
<feColorMatrix type="matrix" values="0 0 0 0 0 0 0 0 0 0 0 0 0 0 0 0 0 0 0.1 0"/>
<feBlend mode="normal" in2="BackgroundImageFix" result="effect1_dropShadow_102_5"/>
<feBlend mode="normal" in="SourceGraphic" in2="effect1_dropShadow_102_5" result="shape"/>
</filter>
<linearGradient id="paint0_linear_102_5" x1="331.256" y1="238" x2="41.2559" y2="139" gradientUnits="userSpaceOnUse">
<stop stop-color="#C7C700"/>
<stop offset="1" stop-color="#C5AB00"/>
</linearGradient>
<linearGradient id="paint1_linear_102_5" x1="190.628" y1="16.0243" x2="190.628" y2="358.024" gradientUnits="userSpaceOnUse">
<stop stop-color="#525252"/>
<stop offset="1" stop-color="#C2BEBE" stop-opacity="0"/>
<stop offset="1" stop-color="#C2BEBE" stop-opacity="0"/>
</linearGradient>
</defs>
</svg>
