<svg width="348" height="405" viewBox="0 0 348 405" fill="none" xmlns="http://www.w3.org/2000/svg">
<g filter="url(#filter0_d_102_2)">
<path d="M311.436 76.8502C318.376 154.437 321.796 196.752 323.459 261.071C321.072 286.056 316.532 296.852 298.479 306.145C225.842 337.395 175.163 361.451 115.708 384.048C90.6534 386.669 80.9095 381.31 71.0877 367.773C50.8904 318.162 41.1004 262.253 22.0304 191.999C17.1538 164.586 21.1693 152.679 41.4728 138.093C117.089 94.2136 227.382 33.352 227.382 33.352C227.382 33.352 248.216 19.7999 261.693 20.8509C277.663 23.685 285.027 28.1534 294.683 37.8912C305.858 49.409 309.498 57.9507 311.436 76.8502Z" fill="#D7C04A"/>
<path d="M311.436 76.8502C318.376 154.437 321.796 196.752 323.459 261.071C321.072 286.056 316.532 296.852 298.479 306.145C225.842 337.395 175.163 361.451 115.708 384.048C90.6534 386.669 80.9095 381.31 71.0877 367.773C50.8904 318.162 41.1004 262.253 22.0304 191.999C17.1538 164.586 21.1693 152.679 41.4728 138.093C117.089 94.2136 227.382 33.352 227.382 33.352C227.382 33.352 248.216 19.7999 261.693 20.8509C277.663 23.685 285.027 28.1534 294.683 37.8912C305.858 49.409 309.498 57.9507 311.436 76.8502Z" fill="url(#paint0_linear_102_2)"/>
</g>
<path d="M307.569 78.3789C304.53 156.216 302.511 198.621 295.935 262.624C290.373 287.099 284.489 297.226 265.396 304.134C189.359 325.838 136.019 343.216 74.1635 358.024C48.9791 357.42 40.0005 350.859 31.9905 336.177C18.3033 284.391 15.7434 227.689 5.81418 155.573C4.48322 127.761 9.98849 116.465 31.9905 104.596C112.598 70.7465 229.767 24.4889 229.767 24.4889C229.767 24.4889 252.164 13.7124 265.396 16.4782C280.872 21.3312 287.604 26.7047 295.935 37.5973C305.546 50.4498 308.064 59.3867 307.569 78.3789Z" fill="#898989"/>
<path d="M307.569 78.3789C304.53 156.216 302.511 198.621 295.935 262.624C290.373 287.099 284.489 297.226 265.396 304.134C189.359 325.838 136.019 343.216 74.1635 358.024C48.9791 357.42 40.0005 350.859 31.9905 336.177C18.3033 284.391 15.7434 227.689 5.81418 155.573C4.48322 127.761 9.98849 116.465 31.9905 104.596C112.598 70.7465 229.767 24.4889 229.767 24.4889C229.767 24.4889 252.164 13.7124 265.396 16.4782C280.872 21.3312 287.604 26.7047 295.935 37.5973C305.546 50.4498 308.064 59.3867 307.569 78.3789Z" fill="url(#paint1_linear_102_2)"/>
<defs>
<filter id="filter0_d_102_2" x="0.155762" y="0.792786" width="343.303" height="403.9" filterUnits="userSpaceOnUse" color-interpolation-filters="sRGB">
<feFlood flood-opacity="0" result="BackgroundImageFix"/>
<feColorMatrix in="SourceAlpha" type="matrix" values="0 0 0 0 0 0 0 0 0 0 0 0 0 0 0 0 0 0 127 0" result="hardAlpha"/>
<feOffset/>
<feGaussianBlur stdDeviation="10"/>
<feComposite in2="hardAlpha" operator="out"/>
<feColorMatrix type="matrix" values="0 0 0 0 0 0 0 0 0 0 0 0 0 0 0 0 0 0 0.1 0"/>
<feBlend mode="normal" in2="BackgroundImageFix" result="effect1_dropShadow_102_2"/>
<feBlend mode="normal" in="SourceGraphic" in2="effect1_dropShadow_102_2" result="shape"/>
</filter>
<linearGradient id="paint0_linear_102_2" x1="16" y1="238" x2="306" y2="139" gradientUnits="userSpaceOnUse">
<stop stop-color="#C7C700"/>
<stop offset="1" stop-color="#C5AB00"/>
</linearGradient>
<linearGradient id="paint1_linear_102_2" x1="156.628" y1="16.0243" x2="156.628" y2="358.024" gradientUnits="userSpaceOnUse">
<stop stop-color="#525252"/>
<stop offset="1" stop-color="#C2BEBE" stop-opacity="0"/>
<stop offset="1" stop-color="#C2BEBE" stop-opacity="0"/>
</linearGradient>
</defs>
</svg>
